<svg xmlns="http://www.w3.org/2000/svg" width="24" height="24" fill="none" viewBox="0 0 24 24">
    <path fill="currentColor" d="M19.92.897a.447.447 0 0 0-.89-.001c-.12 1.051-.433 1.773-.922 2.262-.49.49-1.21.801-2.262.923a.447.447 0 0 0 0 .888c1.035.117 1.772.43 2.274.922.499.49.817 1.21.91 2.251a.447.447 0 0 0 .89 0c.09-1.024.407-1.76.91-2.263.502-.502 1.238-.82 2.261-.908a.447.447 0 0 0 .001-.891c-1.04-.093-1.76-.411-2.25-.91-.493-.502-.806-1.24-.923-2.273ZM11.993 3.82a1.15 1.15 0 0 0-2.285-.002c-.312 2.704-1.115 4.559-2.373 5.817-1.258 1.258-3.113 2.06-5.817 2.373a1.15 1.15 0 0 0 .003 2.285c2.658.3 4.555 1.104 5.845 2.37 1.283 1.26 2.1 3.112 2.338 5.789a1.15 1.15 0 0 0 2.292-.003c.227-2.631 1.045-4.525 2.336-5.817 1.292-1.291 3.186-2.109 5.817-2.336a1.15 1.15 0 0 0 .003-2.291c-2.677-.238-4.529-1.056-5.789-2.34-1.266-1.29-2.07-3.186-2.37-5.844Z"></path>
</svg>