<svg fill="none" height="243" viewBox="0 0 134 243" width="134" xmlns="http://www.w3.org/2000/svg"><mask id="a" height="243" maskUnits="userSpaceOnUse" width="134" x="0" y="0"><path d="m0 32.2c0-11.3898 0-17.0847 2.25173-21.4195 1.89751-3.65285 4.87592-6.63126 8.52877-8.52877 4.3348-2.25173 10.0297-2.25173 21.4195-2.25173h69.6c11.39 0 17.085 0 21.419 2.25173 3.653 1.89751 6.632 4.87592 8.529 8.52877 2.252 4.3348 2.252 10.0297 2.252 21.4195v178.6c0 11.39 0 17.085-2.252 21.419-1.897 3.653-4.876 6.632-8.529 8.529-4.334 2.252-10.029 2.252-21.419 2.252h-69.6c-11.3898 0-17.0847 0-21.4195-2.252-3.65285-1.897-6.63126-4.876-8.52877-8.529-2.25173-4.334-2.25173-10.029-2.25173-21.419z" fill="#bcc0c9"/></mask><g mask="url(#a)"><path d="m0 0h134v59h-134z" fill="#bcc0c9"/></g><path d="m32.2 2h69.6c5.728 0 9.903.00161 13.19.27461 3.263.27101 5.473.79909 7.308 1.75195 3.287 1.70776 5.968 4.38832 7.675 7.67594.953 1.8343 1.481 4.0442 1.752 7.3076.273 3.2874.275 7.4614.275 13.1899v178.6c0 5.728-.002 9.903-.275 13.19-.271 3.263-.799 5.473-1.752 7.308-1.707 3.287-4.388 5.968-7.675 7.675-1.835.953-4.045 1.481-7.308 1.752-3.287.273-7.462.275-13.19.275h-69.6c-5.7285 0-9.9025-.002-13.1899-.275-3.2634-.271-5.4733-.799-7.3076-1.752-3.28762-1.707-5.96818-4.388-7.67594-7.675-.95286-1.835-1.48094-4.045-1.75195-7.308-.273-3.287-.27461-7.462-.27461-13.19v-178.6c0-5.7285.00161-9.9025.27461-13.1899.27101-3.2634.79909-5.4733 1.75195-7.3076 1.70776-3.28762 4.38832-5.96818 7.67594-7.67594 1.8343-.95286 4.0442-1.48094 7.3076-1.75195 3.2874-.273 7.4614-.27461 13.1899-.27461z" stroke="#5e6168" stroke-width="4"/><path d="m17 31c0-5.5228 4.4772-10 10-10h80c5.523 0 10 4.4772 10 10 0 5.5228-4.477 10-10 10h-80c-5.5228 0-10-4.4772-10-10z" fill="#5e6168"/></svg>